<svg xmlns="http://www.w3.org/2000/svg" viewBox="0 0 120 120" fill="none">
  <!-- Paper/document -->
  <rect x="20" y="10" width="70" height="90" rx="4" stroke="#3C4514" stroke-width="3.5" fill="none"/>
  <!-- Folded corner -->
  <path d="M70 10 L70 28 L90 28" stroke="#3C4514" stroke-width="3" fill="none" stroke-linejoin="round"/>
  <path d="M70 10 L90 28" stroke="#3C4514" stroke-width="0" fill="#3C4514" opacity="0.1"/>
  <!-- Lines of text -->
  <line x1="32" y1="42" x2="72" y2="42" stroke="#3C4514" stroke-width="2.5" stroke-linecap="round" opacity="0.5"/>
  <line x1="32" y1="52" x2="66" y2="52" stroke="#3C4514" stroke-width="2.5" stroke-linecap="round" opacity="0.5"/>
  <line x1="32" y1="62" x2="70" y2="62" stroke="#3C4514" stroke-width="2.5" stroke-linecap="round" opacity="0.5"/>
  <line x1="32" y1="72" x2="58" y2="72" stroke="#3C4514" stroke-width="2.5" stroke-linecap="round" opacity="0.5"/>
  <line x1="32" y1="82" x2="64" y2="82" stroke="#3C4514" stroke-width="2.5" stroke-linecap="round" opacity="0.5"/>
  <!-- Shiny star at top right corner -->
  <polygon points="96,14 99,22 108,22 101,28 103,36 96,31 89,36 91,28 84,22 93,22" fill="#3C4514"/>
  <!-- Star sparkle rays -->
  <line x1="96" y1="6" x2="96" y2="10" stroke="#3C4514" stroke-width="1.5" stroke-linecap="round" opacity="0.6"/>
  <line x1="112" y1="25" x2="108" y2="25" stroke="#3C4514" stroke-width="1.5" stroke-linecap="round" opacity="0.6"/>
  <line x1="106" y1="10" x2="104" y2="13" stroke="#3C4514" stroke-width="1.5" stroke-linecap="round" opacity="0.6"/>
  <line x1="86" y1="10" x2="88" y2="13" stroke="#3C4514" stroke-width="1.5" stroke-linecap="round" opacity="0.6"/>
  <!-- Small sparkle dots -->
  <circle cx="110" cy="16" r="1.2" fill="#3C4514" opacity="0.5"/>
  <circle cx="82" cy="18" r="1.2" fill="#3C4514" opacity="0.5"/>
</svg>
