<svg xmlns="http://www.w3.org/2000/svg" viewBox="0 0 120 120" fill="none">
  <!-- Lightbulb glass -->
  <path d="M60 12 C38 12 24 30 24 48 C24 62 34 70 40 78 L40 86 L80 86 L80 78 C86 70 96 62 96 48 C96 30 82 12 60 12 Z" stroke="#3C4514" stroke-width="3.5" fill="none"/>
  <!-- Filament -->
  <path d="M48 58 C52 48 56 54 60 44 C64 54 68 48 72 58" stroke="#3C4514" stroke-width="2.5" fill="none" stroke-linecap="round"/>
  <!-- Bulb base/screw -->
  <line x1="40" y1="90" x2="80" y2="90" stroke="#3C4514" stroke-width="3" stroke-linecap="round"/>
  <line x1="42" y1="95" x2="78" y2="95" stroke="#3C4514" stroke-width="3" stroke-linecap="round"/>
  <line x1="44" y1="100" x2="76" y2="100" stroke="#3C4514" stroke-width="3" stroke-linecap="round"/>
  <!-- Bottom tip -->
  <path d="M50 104 Q60 112 70 104" stroke="#3C4514" stroke-width="3" fill="none" stroke-linecap="round"/>
  <!-- Glow rays -->
  <line x1="60" y1="2" x2="60" y2="8" stroke="#3C4514" stroke-width="2" stroke-linecap="round" opacity="0.6"/>
  <line x1="100" y1="48" x2="106" y2="48" stroke="#3C4514" stroke-width="2" stroke-linecap="round" opacity="0.6"/>
  <line x1="14" y1="48" x2="20" y2="48" stroke="#3C4514" stroke-width="2" stroke-linecap="round" opacity="0.6"/>
  <line x1="92" y1="22" x2="96" y2="18" stroke="#3C4514" stroke-width="2" stroke-linecap="round" opacity="0.6"/>
  <line x1="24" y1="18" x2="28" y2="22" stroke="#3C4514" stroke-width="2" stroke-linecap="round" opacity="0.6"/>
  <!-- Small AI sparkles -->
  <circle cx="104" cy="32" r="2" fill="#3C4514" opacity="0.4"/>
  <circle cx="16" cy="32" r="2" fill="#3C4514" opacity="0.4"/>
  <circle cx="44" cy="6" r="1.5" fill="#3C4514" opacity="0.4"/>
  <circle cx="76" cy="6" r="1.5" fill="#3C4514" opacity="0.4"/>
</svg>
