<svg xmlns="http://www.w3.org/2000/svg" xmlns:xlink="http://www.w3.org/1999/xlink" width="500" zoomAndPan="magnify" viewBox="0 0 375 374.999991" height="500" preserveAspectRatio="xMidYMid meet" version="1.0"><defs><g/><clipPath id="025656145f"><rect x="0" width="155" y="0" height="104"/></clipPath><clipPath id="37addf2ded"><rect x="0" width="152" y="0" height="81"/></clipPath></defs><g transform="matrix(1, 0, 0, 1, 190, 125)"><g clip-path="url(#025656145f)"><g fill="#1b1b1b" fill-opacity="1"><g transform="translate(1.117397, 84.117917)"><g><path d="M 26.25 0.640625 C 23.132812 0.640625 20.726562 -0.0664062 19.03125 -1.484375 C 17.332031 -2.898438 16.082031 -4.410156 15.28125 -6.015625 L 14.71875 -6.015625 L 14.71875 14.796875 L 3.609375 14.796875 L 3.609375 -37.4375 L 14.71875 -37.4375 L 14.71875 -31.921875 L 15.28125 -31.921875 C 15.945312 -33.328125 17.140625 -34.726562 18.859375 -36.125 C 20.578125 -37.519531 23.019531 -38.21875 26.1875 -38.21875 C 30.851562 -38.21875 34.445312 -36.46875 36.96875 -32.96875 C 39.5 -29.476562 40.765625 -24.738281 40.765625 -18.75 C 40.765625 -12.851562 39.5 -8.144531 36.96875 -4.625 C 34.445312 -1.113281 30.875 0.640625 26.25 0.640625 Z M 22.15625 -8.0625 C 24.695312 -8.0625 26.566406 -9.125 27.765625 -11.25 C 28.972656 -13.375 29.578125 -15.875 29.578125 -18.75 C 29.578125 -21.625 28.972656 -24.085938 27.765625 -26.140625 C 26.566406 -28.191406 24.695312 -29.21875 22.15625 -29.21875 C 19.601562 -29.21875 17.722656 -28.179688 16.515625 -26.109375 C 15.316406 -24.035156 14.71875 -21.582031 14.71875 -18.75 C 14.71875 -15.875 15.332031 -13.375 16.5625 -11.25 C 17.789062 -9.125 19.65625 -8.0625 22.15625 -8.0625 Z M 22.15625 -8.0625 "/></g></g></g><g fill="#1b1b1b" fill-opacity="1"><g transform="translate(39.329665, 84.117917)"><g><path d="M 4.953125 -37.4375 L 15.921875 -37.4375 L 15.921875 0 L 4.953125 0 Z M 10.40625 -43.65625 C 8.707031 -43.65625 7.289062 -44.234375 6.15625 -45.390625 C 5.03125 -46.546875 4.46875 -47.953125 4.46875 -49.609375 C 4.46875 -51.304688 5.03125 -52.734375 6.15625 -53.890625 C 7.289062 -55.046875 8.707031 -55.625 10.40625 -55.625 C 12.101562 -55.625 13.53125 -55.046875 14.6875 -53.890625 C 15.84375 -52.734375 16.421875 -51.304688 16.421875 -49.609375 C 16.421875 -47.953125 15.84375 -46.546875 14.6875 -45.390625 C 13.53125 -44.234375 12.101562 -43.65625 10.40625 -43.65625 Z M 10.40625 -43.65625 "/></g></g></g><g fill="#1b1b1b" fill-opacity="1"><g transform="translate(55.109912, 84.117917)"><g><path d="M 16.34375 0.21875 C 12.613281 0.21875 9.863281 -0.347656 8.09375 -1.484375 C 6.332031 -2.617188 5.238281 -3.988281 4.8125 -5.59375 C 4.382812 -7.195312 4.171875 -9.25 4.171875 -11.75 L 4.25 -53.078125 L 15.21875 -53.078125 L 15.21875 -14.015625 C 15.21875 -12.359375 15.296875 -11.117188 15.453125 -10.296875 C 15.617188 -9.472656 16.09375 -8.820312 16.875 -8.34375 C 17.65625 -7.875 18.894531 -7.640625 20.59375 -7.640625 C 21.488281 -7.640625 22.101562 -7.6875 22.4375 -7.78125 L 22.4375 -0.140625 C 20.3125 0.0976562 18.28125 0.21875 16.34375 0.21875 Z M 16.34375 0.21875 "/></g></g></g><g fill="#1b1b1b" fill-opacity="1"><g transform="translate(74.286804, 84.117917)"><g><path d="M 20.65625 0.640625 C 16.695312 0.640625 13.359375 -0.226562 10.640625 -1.96875 C 7.929688 -3.71875 5.914062 -6.054688 4.59375 -8.984375 C 3.28125 -11.910156 2.625 -15.164062 2.625 -18.75 C 2.625 -22.289062 3.28125 -25.535156 4.59375 -28.484375 C 5.914062 -31.429688 7.929688 -33.789062 10.640625 -35.5625 C 13.359375 -37.332031 16.695312 -38.21875 20.65625 -38.21875 C 24.625 -38.21875 27.960938 -37.34375 30.671875 -35.59375 C 33.390625 -33.851562 35.40625 -31.503906 36.71875 -28.546875 C 38.039062 -25.597656 38.703125 -22.359375 38.703125 -18.828125 C 38.703125 -15.285156 38.039062 -12.039062 36.71875 -9.09375 C 35.40625 -6.144531 33.390625 -3.785156 30.671875 -2.015625 C 27.960938 -0.242188 24.625 0.640625 20.65625 0.640625 Z M 20.65625 -8.203125 C 23.113281 -8.203125 24.929688 -9.21875 26.109375 -11.25 C 27.285156 -13.28125 27.875 -15.828125 27.875 -18.890625 C 27.875 -21.960938 27.285156 -24.476562 26.109375 -26.4375 C 24.929688 -28.394531 23.113281 -29.375 20.65625 -29.375 C 18.207031 -29.375 16.394531 -28.378906 15.21875 -26.390625 C 14.039062 -24.410156 13.453125 -21.910156 13.453125 -18.890625 C 13.453125 -15.828125 14.050781 -13.28125 15.25 -11.25 C 16.445312 -9.21875 18.25 -8.203125 20.65625 -8.203125 Z M 20.65625 -8.203125 "/></g></g></g><g fill="#1b1b1b" fill-opacity="1"><g transform="translate(109.951583, 84.117917)"><g><path d="M 18.890625 -28.875 L 18.890625 -13.875 C 18.890625 -12.21875 18.972656 -11 19.140625 -10.21875 C 19.304688 -9.445312 19.773438 -8.820312 20.546875 -8.34375 C 21.328125 -7.875 22.59375 -7.640625 24.34375 -7.640625 C 25.238281 -7.640625 26.160156 -7.734375 27.109375 -7.921875 L 27.109375 -0.28125 C 26.628906 -0.1875 25.679688 -0.0820312 24.265625 0.03125 C 22.859375 0.15625 21.445312 0.21875 20.03125 0.21875 C 16.34375 0.21875 13.613281 -0.320312 11.84375 -1.40625 C 10.082031 -2.5 8.988281 -3.820312 8.5625 -5.375 C 8.132812 -6.9375 7.921875 -8.96875 7.921875 -11.46875 L 7.921875 -28.875 L 1.90625 -28.875 L 1.90625 -37.4375 L 7.921875 -37.4375 L 7.921875 -49.53125 L 18.890625 -49.53125 L 18.890625 -37.4375 L 27.109375 -37.4375 L 27.109375 -28.875 Z M 18.890625 -28.875 "/></g></g></g><g fill="#1b1b1b" fill-opacity="1"><g transform="translate(134.718786, 84.117917)"><g><path d="M 11.890625 0.640625 C 10.140625 0.640625 8.695312 0.0507812 7.5625 -1.125 C 6.4375 -2.3125 5.875 -3.753906 5.875 -5.453125 C 5.875 -7.148438 6.4375 -8.578125 7.5625 -9.734375 C 8.695312 -10.890625 10.140625 -11.46875 11.890625 -11.46875 C 13.628906 -11.46875 15.078125 -10.890625 16.234375 -9.734375 C 17.390625 -8.578125 17.96875 -7.148438 17.96875 -5.453125 C 17.96875 -3.753906 17.378906 -2.3125 16.203125 -1.125 C 15.023438 0.0507812 13.585938 0.640625 11.890625 0.640625 Z M 11.890625 0.640625 "/></g></g></g></g></g><g fill="#1b1b1b" fill-opacity="1"><g transform="translate(164.95952, 241.685257)"><g><path d="M 2.796875 0.078125 C 2.296875 0.078125 1.859375 -0.0195312 1.484375 -0.21875 C 1.117188 -0.414062 0.84375 -0.671875 0.65625 -0.984375 C 0.46875 -1.304688 0.375 -1.644531 0.375 -2 L 0.375 -2.0625 L 1.90625 -2.0625 L 1.90625 -2 C 1.90625 -1.789062 1.984375 -1.59375 2.140625 -1.40625 C 2.296875 -1.226562 2.523438 -1.140625 2.828125 -1.140625 C 3.085938 -1.140625 3.296875 -1.203125 3.453125 -1.328125 C 3.609375 -1.460938 3.6875 -1.640625 3.6875 -1.859375 C 3.6875 -2.054688 3.613281 -2.210938 3.46875 -2.328125 C 3.332031 -2.441406 3.164062 -2.519531 2.96875 -2.5625 L 2.25 -2.703125 C 1.832031 -2.804688 1.4375 -2.988281 1.0625 -3.25 C 0.695312 -3.507812 0.515625 -3.941406 0.515625 -4.546875 C 0.515625 -4.929688 0.609375 -5.265625 0.796875 -5.546875 C 0.992188 -5.828125 1.257812 -6.039062 1.59375 -6.1875 C 1.925781 -6.34375 2.304688 -6.421875 2.734375 -6.421875 C 3.222656 -6.421875 3.644531 -6.328125 4 -6.140625 C 4.351562 -5.960938 4.617188 -5.722656 4.796875 -5.421875 C 4.972656 -5.128906 5.0625 -4.816406 5.0625 -4.484375 L 5.0625 -4.453125 L 3.53125 -4.453125 L 3.53125 -4.46875 C 3.53125 -4.664062 3.460938 -4.84375 3.328125 -5 C 3.191406 -5.164062 2.976562 -5.25 2.6875 -5.25 C 2.457031 -5.25 2.273438 -5.1875 2.140625 -5.0625 C 2.003906 -4.9375 1.9375 -4.773438 1.9375 -4.578125 C 1.9375 -4.378906 2.007812 -4.222656 2.15625 -4.109375 C 2.3125 -3.992188 2.492188 -3.914062 2.703125 -3.875 L 3.421875 -3.703125 C 3.898438 -3.609375 4.304688 -3.414062 4.640625 -3.125 C 4.972656 -2.84375 5.140625 -2.4375 5.140625 -1.90625 C 5.140625 -1.507812 5.035156 -1.160156 4.828125 -0.859375 C 4.628906 -0.554688 4.351562 -0.320312 4 -0.15625 C 3.644531 0 3.242188 0.078125 2.796875 0.078125 Z M 2.796875 0.078125 "/></g></g></g><g fill="#1b1b1b" fill-opacity="1"><g transform="translate(169.981565, 241.685257)"><g><path d="M 0.53125 -6.296875 L 1.9375 -6.296875 L 1.9375 0 L 0.53125 0 Z M 0.53125 -6.296875 "/></g></g></g><g fill="#1b1b1b" fill-opacity="1"><g transform="translate(172.051595, 241.685257)"><g><path d="M 0.46875 -6.296875 L 2.09375 -6.296875 L 4.40625 -2.15625 L 4.421875 -2.15625 L 4.421875 -6.296875 L 5.8125 -6.296875 L 5.8125 0.015625 L 4.171875 0.015625 L 1.875 -3.984375 L 1.859375 -3.984375 L 1.859375 0.015625 L 0.46875 0.015625 Z M 0.46875 -6.296875 "/></g></g></g><g fill="#1b1b1b" fill-opacity="1"><g transform="translate(177.838643, 241.685257)"><g><path d="M 3.234375 0.078125 C 2.628906 0.078125 2.109375 -0.0664062 1.671875 -0.359375 C 1.234375 -0.660156 0.898438 -1.054688 0.671875 -1.546875 C 0.453125 -2.046875 0.34375 -2.585938 0.34375 -3.171875 C 0.34375 -3.753906 0.453125 -4.289062 0.671875 -4.78125 C 0.898438 -5.28125 1.234375 -5.675781 1.671875 -5.96875 C 2.109375 -6.269531 2.628906 -6.421875 3.234375 -6.421875 C 3.972656 -6.421875 4.570312 -6.203125 5.03125 -5.765625 C 5.5 -5.335938 5.804688 -4.785156 5.953125 -4.109375 L 4.59375 -4.109375 C 4.519531 -4.421875 4.363281 -4.679688 4.125 -4.890625 C 3.882812 -5.097656 3.59375 -5.203125 3.25 -5.203125 C 2.769531 -5.203125 2.40625 -5.015625 2.15625 -4.640625 C 1.914062 -4.265625 1.796875 -3.773438 1.796875 -3.171875 C 1.796875 -2.566406 1.914062 -2.078125 2.15625 -1.703125 C 2.40625 -1.328125 2.769531 -1.140625 3.25 -1.140625 C 3.59375 -1.140625 3.878906 -1.238281 4.109375 -1.4375 C 4.335938 -1.644531 4.492188 -1.890625 4.578125 -2.171875 L 5.90625 -2.171875 C 5.78125 -1.515625 5.484375 -0.972656 5.015625 -0.546875 C 4.546875 -0.128906 3.953125 0.078125 3.234375 0.078125 Z M 3.234375 0.078125 "/></g></g></g><g fill="#1b1b1b" fill-opacity="1"><g transform="translate(183.598694, 241.685257)"><g><path d="M 1.875 -5.078125 L 1.875 -3.734375 L 4.28125 -3.734375 L 4.28125 -2.640625 L 1.875 -2.640625 L 1.875 -1.21875 L 4.71875 -1.21875 L 4.71875 0 L 0.46875 0 L 0.46875 -6.296875 L 4.71875 -6.296875 L 4.71875 -5.078125 Z M 1.875 -5.078125 "/></g></g></g><g fill="#1b1b1b" fill-opacity="1"><g transform="translate(188.197743, 241.685257)"><g/></g></g><g fill="#1b1b1b" fill-opacity="1"><g transform="translate(189.77277, 241.685257)"><g><path d="M 0.5 -1.1875 L 1.328125 -1.90625 C 1.421875 -1.976562 1.507812 -2.050781 1.59375 -2.125 C 1.6875 -2.195312 1.773438 -2.265625 1.859375 -2.328125 C 2.265625 -2.648438 2.570312 -2.910156 2.78125 -3.109375 C 3 -3.304688 3.175781 -3.515625 3.3125 -3.734375 C 3.457031 -3.953125 3.53125 -4.175781 3.53125 -4.40625 C 3.53125 -4.632812 3.457031 -4.828125 3.3125 -4.984375 C 3.175781 -5.148438 2.96875 -5.234375 2.6875 -5.234375 C 2.332031 -5.234375 2.097656 -5.128906 1.984375 -4.921875 C 1.867188 -4.710938 1.8125 -4.5 1.8125 -4.28125 L 1.8125 -4.15625 L 0.4375 -4.15625 C 0.4375 -4.632812 0.53125 -5.046875 0.71875 -5.390625 C 0.914062 -5.734375 1.179688 -5.992188 1.515625 -6.171875 C 1.847656 -6.347656 2.226562 -6.4375 2.65625 -6.4375 C 3.113281 -6.4375 3.503906 -6.347656 3.828125 -6.171875 C 4.160156 -6.003906 4.410156 -5.773438 4.578125 -5.484375 C 4.753906 -5.191406 4.84375 -4.859375 4.84375 -4.484375 C 4.84375 -4.140625 4.769531 -3.828125 4.625 -3.546875 C 4.488281 -3.265625 4.320312 -3.019531 4.125 -2.8125 C 3.925781 -2.613281 3.671875 -2.382812 3.359375 -2.125 L 3.15625 -1.96875 L 2.328125 -1.265625 L 2.328125 -1.21875 L 4.890625 -1.21875 L 4.890625 0 L 0.5 0 Z M 0.5 -1.1875 "/></g></g></g><g fill="#1b1b1b" fill-opacity="1"><g transform="translate(194.65982, 241.685257)"><g><path d="M 2.8125 0.140625 C 1.96875 0.140625 1.34375 -0.128906 0.9375 -0.671875 C 0.53125 -1.210938 0.328125 -1.929688 0.328125 -2.828125 L 0.328125 -3.484375 C 0.328125 -4.378906 0.53125 -5.09375 0.9375 -5.625 C 1.34375 -6.15625 1.96875 -6.421875 2.8125 -6.421875 C 3.644531 -6.421875 4.265625 -6.15625 4.671875 -5.625 C 5.078125 -5.09375 5.28125 -4.378906 5.28125 -3.484375 L 5.28125 -2.828125 C 5.28125 -1.929688 5.078125 -1.210938 4.671875 -0.671875 C 4.265625 -0.128906 3.644531 0.140625 2.8125 0.140625 Z M 2.8125 -1.078125 C 3.132812 -1.078125 3.363281 -1.21875 3.5 -1.5 C 3.632812 -1.78125 3.703125 -2.195312 3.703125 -2.75 L 3.703125 -3.578125 C 3.703125 -4.117188 3.632812 -4.523438 3.5 -4.796875 C 3.363281 -5.078125 3.132812 -5.21875 2.8125 -5.21875 C 2.488281 -5.21875 2.253906 -5.078125 2.109375 -4.796875 C 1.972656 -4.523438 1.90625 -4.117188 1.90625 -3.578125 L 1.90625 -2.75 C 1.90625 -2.195312 1.972656 -1.78125 2.109375 -1.5 C 2.253906 -1.21875 2.488281 -1.078125 2.8125 -1.078125 Z M 2.8125 -1.078125 "/></g></g></g><g fill="#1b1b1b" fill-opacity="1"><g transform="translate(199.807865, 241.685257)"><g><path d="M 0.5 -1.1875 L 1.328125 -1.90625 C 1.421875 -1.976562 1.507812 -2.050781 1.59375 -2.125 C 1.6875 -2.195312 1.773438 -2.265625 1.859375 -2.328125 C 2.265625 -2.648438 2.570312 -2.910156 2.78125 -3.109375 C 3 -3.304688 3.175781 -3.515625 3.3125 -3.734375 C 3.457031 -3.953125 3.53125 -4.175781 3.53125 -4.40625 C 3.53125 -4.632812 3.457031 -4.828125 3.3125 -4.984375 C 3.175781 -5.148438 2.96875 -5.234375 2.6875 -5.234375 C 2.332031 -5.234375 2.097656 -5.128906 1.984375 -4.921875 C 1.867188 -4.710938 1.8125 -4.5 1.8125 -4.28125 L 1.8125 -4.15625 L 0.4375 -4.15625 C 0.4375 -4.632812 0.53125 -5.046875 0.71875 -5.390625 C 0.914062 -5.734375 1.179688 -5.992188 1.515625 -6.171875 C 1.847656 -6.347656 2.226562 -6.4375 2.65625 -6.4375 C 3.113281 -6.4375 3.503906 -6.347656 3.828125 -6.171875 C 4.160156 -6.003906 4.410156 -5.773438 4.578125 -5.484375 C 4.753906 -5.191406 4.84375 -4.859375 4.84375 -4.484375 C 4.84375 -4.140625 4.769531 -3.828125 4.625 -3.546875 C 4.488281 -3.265625 4.320312 -3.019531 4.125 -2.8125 C 3.925781 -2.613281 3.671875 -2.382812 3.359375 -2.125 L 3.15625 -1.96875 L 2.328125 -1.265625 L 2.328125 -1.21875 L 4.890625 -1.21875 L 4.890625 0 L 0.5 0 Z M 0.5 -1.1875 "/></g></g></g><g fill="#1b1b1b" fill-opacity="1"><g transform="translate(204.694915, 241.685257)"><g><path d="M 2.703125 0.078125 C 2.273438 0.078125 1.878906 -0.00390625 1.515625 -0.171875 C 1.160156 -0.347656 0.875 -0.601562 0.65625 -0.9375 C 0.445312 -1.28125 0.34375 -1.703125 0.34375 -2.203125 C 0.34375 -2.679688 0.425781 -3.113281 0.59375 -3.5 C 0.769531 -3.894531 1.003906 -4.320312 1.296875 -4.78125 L 2.28125 -6.296875 L 3.640625 -6.296875 L 1.875 -3.65625 L 1.90625 -3.625 L 2.046875 -3.75 C 2.179688 -3.875 2.328125 -3.972656 2.484375 -4.046875 C 2.648438 -4.128906 2.863281 -4.171875 3.125 -4.171875 C 3.507812 -4.171875 3.84375 -4.078125 4.125 -3.890625 C 4.40625 -3.710938 4.617188 -3.460938 4.765625 -3.140625 C 4.921875 -2.828125 5 -2.476562 5 -2.09375 C 5 -1.625 4.894531 -1.222656 4.6875 -0.890625 C 4.476562 -0.566406 4.195312 -0.320312 3.84375 -0.15625 C 3.5 0 3.117188 0.078125 2.703125 0.078125 Z M 2.640625 -1.03125 C 2.972656 -1.03125 3.222656 -1.132812 3.390625 -1.34375 C 3.554688 -1.5625 3.640625 -1.8125 3.640625 -2.09375 C 3.640625 -2.375 3.554688 -2.625 3.390625 -2.84375 C 3.222656 -3.0625 2.972656 -3.171875 2.640625 -3.171875 C 2.328125 -3.171875 2.085938 -3.0625 1.921875 -2.84375 C 1.753906 -2.632812 1.671875 -2.382812 1.671875 -2.09375 C 1.671875 -1.820312 1.753906 -1.578125 1.921875 -1.359375 C 2.085938 -1.140625 2.328125 -1.03125 2.640625 -1.03125 Z M 2.640625 -1.03125 "/></g></g></g><g transform="matrix(1, 0, 0, 1, 42, 150)"><g clip-path="url(#37addf2ded)"><g fill="#1b1b1b" fill-opacity="1"><g transform="translate(1.235624, 57.785221)"><g><path d="M 26.859375 -36.640625 C 28.785156 -36.640625 30.46875 -36.078125 31.90625 -34.953125 C 33.351562 -33.835938 34.078125 -32.289062 34.078125 -30.3125 C 34.078125 -28.8125 33.648438 -27.550781 32.796875 -26.53125 C 31.941406 -25.519531 30.976562 -25.015625 29.90625 -25.015625 C 29.15625 -25.015625 28.515625 -25.28125 27.984375 -25.8125 C 27.453125 -26.351562 27.1875 -27.023438 27.1875 -27.828125 C 27.1875 -28.523438 27.316406 -29.054688 27.578125 -29.421875 C 27.847656 -29.796875 28.25 -30.226562 28.78125 -30.71875 C 29.269531 -31.144531 29.609375 -31.476562 29.796875 -31.71875 C 29.984375 -31.957031 30.078125 -32.289062 30.078125 -32.71875 C 30.078125 -33.570312 29.710938 -34.195312 28.984375 -34.59375 C 28.265625 -35 27.503906 -35.203125 26.703125 -35.203125 C 23.867188 -35.203125 21.207031 -33.851562 18.71875 -31.15625 C 16.238281 -28.457031 14.25 -25.222656 12.75 -21.453125 C 11.25 -17.679688 10.5 -14.429688 10.5 -11.703125 C 10.5 -8.867188 11.191406 -6.582031 12.578125 -4.84375 C 13.972656 -3.113281 15.796875 -2.25 18.046875 -2.25 C 20.234375 -2.25 22.300781 -2.914062 24.25 -4.25 C 26.207031 -5.582031 27.878906 -7.160156 29.265625 -8.984375 L 30.46875 -8.171875 C 25.394531 -2.078125 20.050781 0.96875 14.4375 0.96875 C 11.125 0.96875 8.53125 -0.191406 6.65625 -2.515625 C 4.78125 -4.847656 3.84375 -7.617188 3.84375 -10.828125 C 3.84375 -14.722656 4.953125 -18.6875 7.171875 -22.71875 C 9.390625 -26.757812 12.289062 -30.085938 15.875 -32.703125 C 19.457031 -35.328125 23.117188 -36.640625 26.859375 -36.640625 Z M 26.859375 -36.640625 "/></g></g></g><g fill="#1b1b1b" fill-opacity="1"><g transform="translate(30.744712, 57.785221)"><g><path d="M 25.828125 -36.640625 C 27.742188 -36.640625 29.554688 -36.128906 31.265625 -35.109375 C 32.984375 -34.097656 34.363281 -32.671875 35.40625 -30.828125 C 36.445312 -28.984375 36.96875 -26.882812 36.96875 -24.53125 C 36.96875 -19.832031 35.765625 -15.53125 33.359375 -11.625 C 30.953125 -7.726562 27.941406 -4.65625 24.328125 -2.40625 C 20.722656 -0.15625 17.289062 0.96875 14.03125 0.96875 C 11.414062 0.96875 9.273438 0.285156 7.609375 -1.078125 C 5.953125 -2.441406 4.75 -4.085938 4 -6.015625 C 3.257812 -7.941406 2.890625 -9.757812 2.890625 -11.46875 C 2.890625 -15.101562 4.007812 -18.894531 6.25 -22.84375 C 8.5 -26.800781 11.398438 -30.085938 14.953125 -32.703125 C 18.503906 -35.328125 22.128906 -36.640625 25.828125 -36.640625 Z M 9.46875 -8.421875 C 9.46875 -6.285156 10.023438 -4.519531 11.140625 -3.125 C 12.265625 -1.738281 13.707031 -1.046875 15.46875 -1.046875 C 17.132812 -1.046875 18.703125 -1.539062 20.171875 -2.53125 C 21.640625 -3.519531 22.878906 -4.867188 23.890625 -6.578125 C 25.867188 -9.785156 27.484375 -13.351562 28.734375 -17.28125 C 29.992188 -21.207031 30.625 -24.484375 30.625 -27.109375 C 30.625 -32.347656 28.648438 -34.96875 24.703125 -34.96875 C 21.867188 -34.96875 19.285156 -33.398438 16.953125 -30.265625 C 14.628906 -27.140625 12.800781 -23.453125 11.46875 -19.203125 C 10.132812 -14.953125 9.46875 -11.359375 9.46875 -8.421875 Z M 9.46875 -8.421875 "/></g></g></g><g fill="#1b1b1b" fill-opacity="1"><g transform="translate(62.338598, 57.785221)"><g><path d="M 18.765625 -7.0625 C 22.179688 -10.957031 24.90625 -14.882812 26.9375 -18.84375 C 28.96875 -22.800781 29.984375 -25.796875 29.984375 -27.828125 C 29.984375 -28.578125 29.835938 -29.140625 29.546875 -29.515625 C 29.253906 -29.890625 28.785156 -30.257812 28.140625 -30.625 C 27.503906 -31 27.035156 -31.375 26.734375 -31.75 C 26.441406 -32.125 26.296875 -32.6875 26.296875 -33.4375 C 26.296875 -34.34375 26.628906 -35.101562 27.296875 -35.71875 C 27.972656 -36.332031 28.789062 -36.640625 29.75 -36.640625 C 30.925781 -36.640625 31.914062 -36.160156 32.71875 -35.203125 C 33.519531 -34.242188 33.921875 -33.117188 33.921875 -31.828125 C 33.921875 -28.410156 32.140625 -23.773438 28.578125 -17.921875 C 25.023438 -12.066406 20.285156 -5.769531 14.359375 0.96875 L 12.90625 0.96875 L 12.984375 -4.734375 C 12.984375 -11.890625 12.582031 -18.519531 11.78125 -24.625 C 11.300781 -28.09375 10.738281 -30.425781 10.09375 -31.625 C 9.457031 -32.832031 8.550781 -33.4375 7.375 -33.4375 C 6.414062 -33.4375 5.664062 -33.359375 5.125 -33.203125 L 5.125 -34.640625 L 15.46875 -36.640625 C 16.757812 -33.054688 17.617188 -28.695312 18.046875 -23.5625 C 18.472656 -18.4375 18.710938 -12.9375 18.765625 -7.0625 Z M 18.765625 -7.0625 "/></g></g></g><g fill="#1b1b1b" fill-opacity="1"><g transform="translate(90.724986, 57.785221)"><g><path d="M 25.984375 -36.640625 C 28.222656 -36.640625 30.101562 -36.078125 31.625 -34.953125 C 33.15625 -33.835938 33.921875 -32.394531 33.921875 -30.625 C 33.921875 -28.914062 33.117188 -26.960938 31.515625 -24.765625 C 29.910156 -22.578125 27.300781 -20.640625 23.6875 -18.953125 C 20.082031 -17.273438 15.5 -16.359375 9.9375 -16.203125 C 9.625 -15.128906 9.46875 -13.816406 9.46875 -12.265625 C 9.46875 -9.003906 10.347656 -6.640625 12.109375 -5.171875 C 13.867188 -3.703125 15.820312 -2.96875 17.96875 -2.96875 C 21.539062 -2.96875 25.175781 -4.757812 28.875 -8.34375 L 29.90625 -7.375 C 24.1875 -1.8125 18.65625 0.96875 13.3125 0.96875 C 11.125 0.96875 9.210938 0.421875 7.578125 -0.671875 C 5.941406 -1.773438 4.707031 -3.207031 3.875 -4.96875 C 3.050781 -6.738281 2.640625 -8.554688 2.640625 -10.421875 C 2.640625 -14.160156 3.722656 -18.085938 5.890625 -22.203125 C 8.054688 -26.328125 10.941406 -29.765625 14.546875 -32.515625 C 18.160156 -35.265625 21.972656 -36.640625 25.984375 -36.640625 Z M 10.421875 -17.71875 C 14.054688 -17.988281 17 -18.601562 19.25 -19.5625 C 21.4375 -20.53125 23.210938 -21.773438 24.578125 -23.296875 C 25.941406 -24.816406 26.914062 -26.3125 27.5 -27.78125 C 28.09375 -29.25 28.390625 -30.46875 28.390625 -31.4375 C 28.390625 -32.34375 28.050781 -33.179688 27.375 -33.953125 C 26.707031 -34.734375 25.757812 -35.125 24.53125 -35.125 C 22.394531 -35.125 20.320312 -34.132812 18.3125 -32.15625 C 16.3125 -30.175781 14.601562 -27.820312 13.1875 -25.09375 C 11.769531 -22.375 10.847656 -19.914062 10.421875 -17.71875 Z M 10.421875 -17.71875 "/></g></g></g><g fill="#1b1b1b" fill-opacity="1"><g transform="translate(120.234075, 57.785221)"><g><path d="M 17 -36.640625 L 12.109375 -15.875 C 13.066406 -18.226562 14.441406 -21.035156 16.234375 -24.296875 C 18.023438 -27.554688 19.9375 -30.425781 21.96875 -32.90625 C 24 -35.394531 25.84375 -36.640625 27.5 -36.640625 C 28.195312 -36.640625 28.8125 -36.398438 29.34375 -35.921875 C 29.882812 -35.441406 30.15625 -34.722656 30.15625 -33.765625 C 30.15625 -32.265625 29.847656 -30.738281 29.234375 -29.1875 C 28.617188 -27.632812 27.585938 -26.859375 26.140625 -26.859375 C 25.390625 -26.859375 24.878906 -27.046875 24.609375 -27.421875 C 24.347656 -27.796875 24.132812 -28.359375 23.96875 -29.109375 C 23.863281 -29.640625 23.742188 -30.023438 23.609375 -30.265625 C 23.484375 -30.503906 23.234375 -30.625 22.859375 -30.625 C 21.941406 -30.625 20.65625 -29.179688 19 -26.296875 C 17.34375 -23.410156 15.710938 -20.097656 14.109375 -16.359375 C 12.503906 -12.617188 11.4375 -9.8125 10.90625 -7.9375 L 8.65625 0 L 2.71875 0 L 9.0625 -25.90625 C 9.113281 -26.0625 9.269531 -26.710938 9.53125 -27.859375 C 9.800781 -29.015625 9.9375 -30.046875 9.9375 -30.953125 C 9.9375 -31.804688 9.695312 -32.363281 9.21875 -32.625 C 8.738281 -32.894531 8.097656 -33.03125 7.296875 -33.03125 C 6.710938 -33.03125 6.191406 -33.003906 5.734375 -32.953125 C 5.273438 -32.898438 4.914062 -32.847656 4.65625 -32.796875 L 5.046875 -34.3125 L 15.640625 -36.640625 Z M 17 -36.640625 "/></g></g></g></g></g></svg>